<svg xmlns="http://www.w3.org/2000/svg" width="1200" height="300" viewBox="0 0 1200 300" fill="none" role="img" aria-label="Julian Kerignard - AI / ML Engineer">
  <defs>
    <linearGradient id="bg" x1="0" y1="0" x2="1" y2="1">
      <stop offset="0" stop-color="#0d1117"/>
      <stop offset="1" stop-color="#0b1620"/>
    </linearGradient>
    <radialGradient id="halo" cx="0.85" cy="0.28" r="0.5">
      <stop offset="0" stop-color="#2dd4bf" stop-opacity="0.32"/>
      <stop offset="1" stop-color="#2dd4bf" stop-opacity="0"/>
    </radialGradient>
    <filter id="glow" x="-120%" y="-120%" width="340%" height="340%">
      <feGaussianBlur stdDeviation="4" result="b"/>
      <feMerge><feMergeNode in="b"/><feMergeNode in="SourceGraphic"/></feMerge>
    </filter>
    <clipPath id="frame"><rect x="0" y="0" width="1200" height="300" rx="16"/></clipPath>
  </defs>

  <g clip-path="url(#frame)">
    <rect width="1200" height="300" fill="url(#bg)"/>
    <line x1="40" y1="0" x2="40" y2="300" stroke="#2dd4bf" stroke-width="1" opacity="0.04"/>
    <line x1="80" y1="0" x2="80" y2="300" stroke="#2dd4bf" stroke-width="1" opacity="0.04"/>
    <line x1="120" y1="0" x2="120" y2="300" stroke="#2dd4bf" stroke-width="1" opacity="0.04"/>
    <line x1="160" y1="0" x2="160" y2="300" stroke="#2dd4bf" stroke-width="1" opacity="0.04"/>
    <line x1="200" y1="0" x2="200" y2="300" stroke="#2dd4bf" stroke-width="1" opacity="0.04"/>
    <line x1="240" y1="0" x2="240" y2="300" stroke="#2dd4bf" stroke-width="1" opacity="0.04"/>
    <line x1="280" y1="0" x2="280" y2="300" stroke="#2dd4bf" stroke-width="1" opacity="0.04"/>
    <line x1="320" y1="0" x2="320" y2="300" stroke="#2dd4bf" stroke-width="1" opacity="0.04"/>
    <line x1="360" y1="0" x2="360" y2="300" stroke="#2dd4bf" stroke-width="1" opacity="0.04"/>
    <line x1="400" y1="0" x2="400" y2="300" stroke="#2dd4bf" stroke-width="1" opacity="0.04"/>
    <line x1="440" y1="0" x2="440" y2="300" stroke="#2dd4bf" stroke-width="1" opacity="0.04"/>
    <line x1="480" y1="0" x2="480" y2="300" stroke="#2dd4bf" stroke-width="1" opacity="0.04"/>
    <line x1="520" y1="0" x2="520" y2="300" stroke="#2dd4bf" stroke-width="1" opacity="0.04"/>
    <line x1="560" y1="0" x2="560" y2="300" stroke="#2dd4bf" stroke-width="1" opacity="0.04"/>
    <line x1="600" y1="0" x2="600" y2="300" stroke="#2dd4bf" stroke-width="1" opacity="0.04"/>
    <line x1="640" y1="0" x2="640" y2="300" stroke="#2dd4bf" stroke-width="1" opacity="0.04"/>
    <line x1="680" y1="0" x2="680" y2="300" stroke="#2dd4bf" stroke-width="1" opacity="0.04"/>
    <line x1="720" y1="0" x2="720" y2="300" stroke="#2dd4bf" stroke-width="1" opacity="0.04"/>
    <line x1="760" y1="0" x2="760" y2="300" stroke="#2dd4bf" stroke-width="1" opacity="0.04"/>
    <line x1="800" y1="0" x2="800" y2="300" stroke="#2dd4bf" stroke-width="1" opacity="0.04"/>
    <line x1="840" y1="0" x2="840" y2="300" stroke="#2dd4bf" stroke-width="1" opacity="0.04"/>
    <line x1="880" y1="0" x2="880" y2="300" stroke="#2dd4bf" stroke-width="1" opacity="0.04"/>
    <line x1="920" y1="0" x2="920" y2="300" stroke="#2dd4bf" stroke-width="1" opacity="0.04"/>
    <line x1="960" y1="0" x2="960" y2="300" stroke="#2dd4bf" stroke-width="1" opacity="0.04"/>
    <line x1="1000" y1="0" x2="1000" y2="300" stroke="#2dd4bf" stroke-width="1" opacity="0.04"/>
    <line x1="1040" y1="0" x2="1040" y2="300" stroke="#2dd4bf" stroke-width="1" opacity="0.04"/>
    <line x1="1080" y1="0" x2="1080" y2="300" stroke="#2dd4bf" stroke-width="1" opacity="0.04"/>
    <line x1="1120" y1="0" x2="1120" y2="300" stroke="#2dd4bf" stroke-width="1" opacity="0.04"/>
    <line x1="1160" y1="0" x2="1160" y2="300" stroke="#2dd4bf" stroke-width="1" opacity="0.04"/>
    <line x1="0" y1="40" x2="1200" y2="40" stroke="#2dd4bf" stroke-width="1" opacity="0.04"/>
    <line x1="0" y1="80" x2="1200" y2="80" stroke="#2dd4bf" stroke-width="1" opacity="0.04"/>
    <line x1="0" y1="120" x2="1200" y2="120" stroke="#2dd4bf" stroke-width="1" opacity="0.04"/>
    <line x1="0" y1="160" x2="1200" y2="160" stroke="#2dd4bf" stroke-width="1" opacity="0.04"/>
    <line x1="0" y1="200" x2="1200" y2="200" stroke="#2dd4bf" stroke-width="1" opacity="0.04"/>
    <line x1="0" y1="240" x2="1200" y2="240" stroke="#2dd4bf" stroke-width="1" opacity="0.04"/>
    <line x1="0" y1="280" x2="1200" y2="280" stroke="#2dd4bf" stroke-width="1" opacity="0.04"/>
    <rect width="1200" height="300" fill="url(#halo)"/>

    <!-- neural network -->
    <line x1="858" y1="96" x2="985" y2="70" stroke="#2dd4bf" stroke-width="1" opacity="0.28"/>
    <line x1="858" y1="96" x2="985" y2="128" stroke="#2dd4bf" stroke-width="1" opacity="0.28"/>
    <line x1="858" y1="96" x2="985" y2="172" stroke="#2dd4bf" stroke-width="1" opacity="0.28"/>
    <line x1="858" y1="96" x2="985" y2="230" stroke="#2dd4bf" stroke-width="1" opacity="0.28"/>
    <line x1="858" y1="150" x2="985" y2="70" stroke="#2dd4bf" stroke-width="1" opacity="0.28"/>
    <line x1="858" y1="150" x2="985" y2="128" stroke="#2dd4bf" stroke-width="1" opacity="0.28"/>
    <line x1="858" y1="150" x2="985" y2="172" stroke="#2dd4bf" stroke-width="1" opacity="0.28"/>
    <line x1="858" y1="150" x2="985" y2="230" stroke="#2dd4bf" stroke-width="1" opacity="0.28"/>
    <line x1="858" y1="204" x2="985" y2="70" stroke="#2dd4bf" stroke-width="1" opacity="0.28"/>
    <line x1="858" y1="204" x2="985" y2="128" stroke="#2dd4bf" stroke-width="1" opacity="0.28"/>
    <line x1="858" y1="204" x2="985" y2="172" stroke="#2dd4bf" stroke-width="1" opacity="0.28"/>
    <line x1="858" y1="204" x2="985" y2="230" stroke="#2dd4bf" stroke-width="1" opacity="0.28"/>
    <line x1="985" y1="70" x2="1112" y2="96" stroke="#2dd4bf" stroke-width="1" opacity="0.28"/>
    <line x1="985" y1="70" x2="1112" y2="150" stroke="#2dd4bf" stroke-width="1" opacity="0.28"/>
    <line x1="985" y1="70" x2="1112" y2="204" stroke="#2dd4bf" stroke-width="1" opacity="0.28"/>
    <line x1="985" y1="128" x2="1112" y2="96" stroke="#2dd4bf" stroke-width="1" opacity="0.28"/>
    <line x1="985" y1="128" x2="1112" y2="150" stroke="#2dd4bf" stroke-width="1" opacity="0.28"/>
    <line x1="985" y1="128" x2="1112" y2="204" stroke="#2dd4bf" stroke-width="1" opacity="0.28"/>
    <line x1="985" y1="172" x2="1112" y2="96" stroke="#2dd4bf" stroke-width="1" opacity="0.28"/>
    <line x1="985" y1="172" x2="1112" y2="150" stroke="#2dd4bf" stroke-width="1" opacity="0.28"/>
    <line x1="985" y1="172" x2="1112" y2="204" stroke="#2dd4bf" stroke-width="1" opacity="0.28"/>
    <line x1="985" y1="230" x2="1112" y2="96" stroke="#2dd4bf" stroke-width="1" opacity="0.28"/>
    <line x1="985" y1="230" x2="1112" y2="150" stroke="#2dd4bf" stroke-width="1" opacity="0.28"/>
    <line x1="985" y1="230" x2="1112" y2="204" stroke="#2dd4bf" stroke-width="1" opacity="0.28"/>
    <circle cx="858" cy="96" r="6" fill="#0d1117" stroke="#3fb8a6" stroke-width="1.5"/>
    <circle cx="858" cy="150" r="7" fill="#2dd4bf" filter="url(#glow)"/>
    <circle cx="858" cy="150" r="3" fill="#ffffff" opacity="0.85"/>
    <circle cx="858" cy="204" r="6" fill="#0d1117" stroke="#3fb8a6" stroke-width="1.5"/>
    <circle cx="985" cy="70" r="7" fill="#2dd4bf" filter="url(#glow)"/>
    <circle cx="985" cy="70" r="3" fill="#ffffff" opacity="0.85"/>
    <circle cx="985" cy="128" r="6" fill="#0d1117" stroke="#3fb8a6" stroke-width="1.5"/>
    <circle cx="985" cy="172" r="6" fill="#0d1117" stroke="#3fb8a6" stroke-width="1.5"/>
    <circle cx="985" cy="230" r="7" fill="#2dd4bf" filter="url(#glow)"/>
    <circle cx="985" cy="230" r="3" fill="#ffffff" opacity="0.85"/>
    <circle cx="1112" cy="96" r="6" fill="#0d1117" stroke="#3fb8a6" stroke-width="1.5"/>
    <circle cx="1112" cy="150" r="7" fill="#2dd4bf" filter="url(#glow)"/>
    <circle cx="1112" cy="150" r="3" fill="#ffffff" opacity="0.85"/>
    <circle cx="1112" cy="204" r="6" fill="#0d1117" stroke="#3fb8a6" stroke-width="1.5"/>

    <!-- left accent rule -->
    <rect x="70" y="112" width="54" height="4" rx="2" fill="#2dd4bf"/>

    <!-- text -->
    <text x="68" y="86" font-family="'SFMono-Regular',ui-monospace,'JetBrains Mono',Consolas,monospace" font-size="15" letter-spacing="2" fill="#3fb8a6">&#47;&#47; training neural nets from scratch</text>
    <text x="66" y="168" font-family="'Segoe UI',system-ui,-apple-system,Helvetica,Arial,sans-serif" font-size="62" font-weight="800" letter-spacing="1" fill="#f0f6fc">Julian Kerignard</text>
    <text x="70" y="212" font-family="'Segoe UI',system-ui,-apple-system,Helvetica,Arial,sans-serif" font-size="26" font-weight="700" letter-spacing="4" fill="#2dd4bf">AI &#47; ML ENGINEER</text>
    <text x="70" y="250" font-family="'SFMono-Regular',ui-monospace,'JetBrains Mono',Consolas,monospace" font-size="16" letter-spacing="0.5" fill="#8b949e">world models &#183; LLMs from scratch &#183; JAX &#47; Flax on TPU</text>

    <rect x="0.75" y="0.75" width="1198.5" height="298.5" rx="15.25" fill="none" stroke="#2dd4bf" stroke-opacity="0.18" stroke-width="1.5"/>
  </g>
</svg>
