<svg xmlns="http://www.w3.org/2000/svg" width="460" height="218" viewBox="0 0 460 218" fill="none" role="img" aria-label="Most used languages">
  <defs>
    <clipPath id="bar"><rect x="22" y="58" width="416" height="13" rx="6.5"/></clipPath>
  </defs>
  <rect x="0.75" y="0.75" width="458.5" height="216.5" rx="12" fill="#0d1117" stroke="#2dd4bf" stroke-opacity="0.18" stroke-width="1.5"/>
  <rect x="22" y="30" width="14" height="3" rx="1.5" fill="#2dd4bf"/>
  <text x="44" y="38" font-family="'Segoe UI',system-ui,-apple-system,Helvetica,Arial,sans-serif" font-size="16" font-weight="700" fill="#2dd4bf">Most Used Languages</text>
  <g clip-path="url(#bar)">
    <rect x="22" y="58" width="416" height="13" fill="#161b22"/>
    <rect x="22.00" y="58" width="159.40" height="13" fill="#2dd4bf"/><rect x="181.40" y="58" width="151.04" height="13" fill="#4f9dde"/><rect x="332.43" y="58" width="35.98" height="13" fill="#b98cf0"/><rect x="368.41" y="58" width="33.22" height="13" fill="#e6b450"/><rect x="401.63" y="58" width="12.02" height="13" fill="#e07a5f"/><rect x="413.65" y="58" width="7.75" height="13" fill="#7aa2f7"/><rect x="421.40" y="58" width="5.16" height="13" fill="#f2849e"/><rect x="426.56" y="58" width="11.44" height="13" fill="#6b7684"/>
  </g>
  <circle cx="27" cy="100" r="5.5" fill="#2dd4bf"/><text x="40" y="104" font-family="'Segoe UI',system-ui,-apple-system,Helvetica,Arial,sans-serif" font-size="14" font-weight="600" fill="#c9d1d9">TypeScript</text><text x="222" y="104" font-family="'SFMono-Regular',ui-monospace,'JetBrains Mono',Consolas,monospace" font-size="13" fill="#8b949e" text-anchor="end">38.3%</text><circle cx="255" cy="100" r="5.5" fill="#4f9dde"/><text x="268" y="104" font-family="'Segoe UI',system-ui,-apple-system,Helvetica,Arial,sans-serif" font-size="14" font-weight="600" fill="#c9d1d9">C#</text><text x="450" y="104" font-family="'SFMono-Regular',ui-monospace,'JetBrains Mono',Consolas,monospace" font-size="13" fill="#8b949e" text-anchor="end">36.3%</text><circle cx="27" cy="130" r="5.5" fill="#b98cf0"/><text x="40" y="134" font-family="'Segoe UI',system-ui,-apple-system,Helvetica,Arial,sans-serif" font-size="14" font-weight="600" fill="#c9d1d9">HTML</text><text x="222" y="134" font-family="'SFMono-Regular',ui-monospace,'JetBrains Mono',Consolas,monospace" font-size="13" fill="#8b949e" text-anchor="end">8.6%</text><circle cx="255" cy="130" r="5.5" fill="#e6b450"/><text x="268" y="134" font-family="'Segoe UI',system-ui,-apple-system,Helvetica,Arial,sans-serif" font-size="14" font-weight="600" fill="#c9d1d9">Python</text><text x="450" y="134" font-family="'SFMono-Regular',ui-monospace,'JetBrains Mono',Consolas,monospace" font-size="13" fill="#8b949e" text-anchor="end">8.0%</text><circle cx="27" cy="160" r="5.5" fill="#e07a5f"/><text x="40" y="164" font-family="'Segoe UI',system-ui,-apple-system,Helvetica,Arial,sans-serif" font-size="14" font-weight="600" fill="#c9d1d9">Rust</text><text x="222" y="164" font-family="'SFMono-Regular',ui-monospace,'JetBrains Mono',Consolas,monospace" font-size="13" fill="#8b949e" text-anchor="end">2.9%</text><circle cx="255" cy="160" r="5.5" fill="#7aa2f7"/><text x="268" y="164" font-family="'Segoe UI',system-ui,-apple-system,Helvetica,Arial,sans-serif" font-size="14" font-weight="600" fill="#c9d1d9">Luau</text><text x="450" y="164" font-family="'SFMono-Regular',ui-monospace,'JetBrains Mono',Consolas,monospace" font-size="13" fill="#8b949e" text-anchor="end">1.9%</text><circle cx="27" cy="190" r="5.5" fill="#f2849e"/><text x="40" y="194" font-family="'Segoe UI',system-ui,-apple-system,Helvetica,Arial,sans-serif" font-size="14" font-weight="600" fill="#c9d1d9">Swift</text><text x="222" y="194" font-family="'SFMono-Regular',ui-monospace,'JetBrains Mono',Consolas,monospace" font-size="13" fill="#8b949e" text-anchor="end">1.2%</text><circle cx="255" cy="190" r="5.5" fill="#6b7684"/><text x="268" y="194" font-family="'Segoe UI',system-ui,-apple-system,Helvetica,Arial,sans-serif" font-size="14" font-weight="600" fill="#c9d1d9">Other</text><text x="450" y="194" font-family="'SFMono-Regular',ui-monospace,'JetBrains Mono',Consolas,monospace" font-size="13" fill="#8b949e" text-anchor="end">2.8%</text>
</svg>
